<?xml version="1.0" encoding="UTF-8"?>
<svg id="Capa_1" xmlns="http://www.w3.org/2000/svg" version="1.1" viewBox="0 0 474.44 93.33">
  <!-- Generator: Adobe Illustrator 30.2.1, SVG Export Plug-In . SVG Version: 2.1.1 Build 1)  -->
  <path d="M41.67,30.04c-.14,1.58-.14,4.1-1.3,5.4-.14.14-.43.14-.58.36-.07.14-.07.36-.14.58l-.36.14c-.72,1.51-1.22,2.59-2.81,3.31-.94,3.74-5.54,3.74-7.2,6.7-1.22.14-1.87,1.3-2.81,1.87s-3.53,1.22-4.1,2.23c.65,1.37,2.38,1.73,3.74,2.02.5.14,1.15.07,1.66.22.36.07.58.36.94.5.94.43,2.16.22,2.95.94,3.17.22,6.34.86,9.43,1.3.58.5.72,1.3.72,1.94,0,.79-.22,1.87-1.08,2.16-1.8-.22-3.46-.94-5.18-1.51-1.51-.43-3.1-.72-4.61-1.08-.5-.14-1.01-.29-1.51-.36-1.15-.22-2.23-.43-3.17-1.15-.36.07-.72.14-1.08.14-1.58,0-3.1-.65-4.68-.65-.72,0-1.37.14-2.02.5,0,1.51-.14,2.95-.14,4.46,0,.79,0,1.58.14,2.38.22,1.22.79,2.38.94,3.53.22,1.3.29,2.81.29,4.1,0,1.44-.5,2.23-1.73,2.95-.65.36-1.94.79-2.59.79-.79,0-1.94-1.01-2.45-1.51-.65-.72-.43-5.26-.58-6.48-.07-1.08-.58-2.02-.58-3.1,0-1.01.22-1.94.22-2.95,0-1.22-.72-2.38-.72-3.6,0-.65.22-1.3.22-1.94,0-1.15-.07-2.45-.22-3.6-.07-.79-.36-1.44-.36-2.23,0-.65.14-1.22.14-1.87,0-.29-.14-.58-.14-.94,0-.5.07-.94.07-1.44,0-.86-.43-1.66-.43-2.45,0-.94.14-1.8.14-2.74,0-1.51-.22-2.95-.36-4.46-.14-1.44-.07-2.88-.22-4.25,0-.79-.29-1.51-.36-2.23,0-.65.07-1.3.07-1.94,0-1.44-.43-2.88-.43-4.32,0-.58.22-1.08.22-1.51,0-.29-.07-.58-.22-.79.14-1.3.36-3.1,2.09-3.1,1.58,0,2.95.94,4.61.94,1.01,0,2.09-.22,3.17-.22.5,0,1.01.14,1.51.14,1.01,0,1.94-.36,2.95-.36,1.3,0,2.59.22,3.89.22.43,0,.86-.22,1.3-.22s.86.29,1.3.36c2.23.58,4.18,1.22,6.26,2.23,1.01.5,1.22,1.01,2.02,1.66.72.58,1.58,1.08,2.09,1.87.36.72.43,1.66.72,2.45.22.65.72,1.66.72,2.38s-.29,1.51-.36,2.23ZM35.19,30.04c0-1.22.14-2.45.14-3.67,0-1.44-.14-2.59-1.08-3.74-.29-.36-1.87-.79-2.38-1.08-.65-.43-1.66-1.51-2.38-1.51-.5,0-1.01.22-1.58.22-1.01,0-1.87-.65-2.95-.65-.94,0-1.87.22-2.74.22-.58.07-1.22,0-1.8,0-1.22,0-1.8.58-2.88.94-.79.36-1.87.29-2.02,1.3-.07.36-.07.72-.07,1.08,0,1.58.58,3.1.79,4.68.29,1.8.22,3.6.43,5.4.14,1.73.43,3.46.5,5.18.07,1.08,0,2.16,0,3.24,0,1.3.29,2.38.36,3.6.07.5,0,1.08,0,1.58,0,.58.07,1.08.43,1.58.22.07.43.14.72.14,1.15,0,1.87-.86,2.81-1.44,1.22-.79,2.66-1.37,3.89-2.23,1.8-1.37,3.46-2.81,5.18-4.25.5-.5,1.44-1.15,1.8-1.66.5-.72.58-1.8.94-2.59.43-.86,1.37-1.58,1.66-2.45.07-.14,0-.65,0-.79,0-.65.43-.72.43-1.22,0-.65-.22-1.22-.22-1.87Z"/>
  <path d="M67.66,59.99c-.43.43-.79,1.01-1.3,1.3-.65.43-1.51.65-2.23.94-.58.29-1.44.79-2.02.94-.58.14-1.22,0-1.8,0-.72,0-1.44.14-2.16.14s-1.37-.22-2.02-.72c-1.94-.14-3.89-.86-5.33-2.23-.29-.22-.36-.5-.58-.72-.22-.14-.5-.22-.72-.36-2.23-1.66-2.66-3.38-2.66-6.05,0-2.52,1.3-4.75,2.45-6.91.07-.22.07-.43.22-.58.22-.29.65-.43.94-.72.5-.58.79-1.37,1.44-1.87.22-.22.5-.22.72-.36.43-.29.72-.94,1.15-1.15,1.37-.72,3.74-.86,5.26-.86,3.02,0,7.2,1.01,8.78,3.89.36.5.5,1.01.94,1.44.58.5,1.3.86,1.73,1.51.07.14.07.36.14.5.65,1.37.86,2.74.86,4.25,0,3.38-1.44,5.4-3.82,7.63ZM65.65,48.9c-.22-.22-.43-.36-.58-.58-.65-.72-1.08-2.09-2.02-2.38-.5-.22-4.61-1.15-4.97-1.15-.43,0-1.58.86-1.94,1.15-.29.22-.58.36-.94.5-2.02,1.15-2.45,2.16-2.45,4.54,0,1.73.65,2.95,1.73,4.18.65.72,2.38,2.66,3.17,2.95,1.22.5,3.1.29,4.46.43,1.01-.65,2.45-1.73,2.95-2.81l.36-.22c.22-.29.22-.72.36-1.08.5-1.15.86-1.08.86-2.74,0-1.01-.43-2.02-1.01-2.81Z"/>
  <path d="M102.94,56.61c-.22,1.22-1.01,1.94-1.58,3.02-.36.58-.79,1.87-1.3,2.23-.58.5-1.22.5-1.87.72-1.01.36-1.3,1.44-2.59,1.44-.43,0-.79-.07-1.22-.07-1.37,0-2.3,1.08-3.6,1.3-.72.07-1.51,0-2.23,0-.43,0-.86,0-1.3.14-.65-.29-1.44-.86-2.23-.86-.43,0-.72.22-1.15.36-.14.07-.36.07-.5.14-.86.72-.72,1.08-2.09,1.08s-3.38-1.58-3.38-2.95c0-1.58.36-3.17.36-4.75,0-1.01-.29-2.02-.36-3.02-.22-2.38-.36-4.82-.36-7.2,0-.43.22-.86.22-1.3,0-1.01-.58-1.94-.58-2.95,0-.36.22-.79.22-1.22s-.36-.79-.36-1.22c0-.58.22-1.08.22-1.58,0-2.59-.58-5.04-.58-7.63,0-.36.22-.79.22-1.22,0-.79-.43-1.66-.58-2.45-.22-1.8-.14-3.67-.36-5.47-.07-.79-.36-1.58-.36-2.45,0-.5.22-.94.22-1.44,0-1.58-.5-3.17-.5-4.82,0-1.08.22-3.74,1.73-3.74.58,0,1.44-.14,1.58.5h.36c1.37,1.15,1.58,5.83,1.94,7.56.14.86.58,1.66.72,2.45.14,1.01.07,2.02.14,3.02.14,1.94.36,3.89.5,5.83.14.86.29,1.73.36,2.59.07.79,0,1.58,0,2.38s.29,1.44.36,2.23c.22,1.73.07,3.53.22,5.26,0,1.15-.07,3.6,1.37,3.89.14.07.29.07.43.07,1.66,0,2.38-1.87,3.6-2.52.29-.14.5-.07.72-.22,1.44-.43,2.95-.86,4.46-.86,1.8,0,3.46.36,4.9,1.44.22.14.36.36.5.5.5.43,1.15.72,1.58,1.22.36.43.43,1.01.72,1.44.14.22.43.29.5.5.14.14.07.22.22.36.65.86.72,2.09,1.37,3.02-.14,1.73-.36,3.53-.65,5.26ZM96.75,50.63c-.07-.36-.36-.72-.5-1.08-.65-1.51-.65-2.02-1.94-3.17-.14.07-.29.07-.43.07-.5,0-.94-.14-1.44-.14-1.51,0-1.94.94-3.1,1.66-.86.65-1.22,1.66-1.94,2.45-.58.72-1.8,1.58-1.8,2.52,0,.36.07.79.07,1.15,0,1.15-.94,1.8-.94,3.1,0,1.44.58,2.88.58,4.39,1.01.65,2.16.5,3.31.5.58,0,1.01.14,1.51.14.43,0,.94-.36,1.37-.5.5-.14,1.08,0,1.58-.14.22-.14.43-.43.65-.58,2.09-1.3,2.88-1.8,3.17-4.39.07-.36.07-.72.07-1.08,0-1.37.07-3.67-.22-4.9Z"/>
  <path d="M110.07,28.82c-.5.14-.94.29-1.44.29-.22,0-2.02-.43-2.09-.5-.14-.07-.14-.22-.22-.36-.79-.36-1.22-1.73-1.22-2.59,0-1.58,1.8-2.16,3.17-2.16,1.44,0,3.1.65,3.96,1.8.36.43.79.86.79,1.44,0,1.37-2.02,1.73-2.95,2.09ZM112.59,67.77c-.94,0-1.58-.65-2.38-1.01-.65-1.22-.58-3.02-.72-4.46-.07-.43-.29-.79-.36-1.3-.07-.43,0-.86,0-1.37,0-1.8-.36-3.89-.36-5.83-.07-.65,0-1.37,0-2.02,0-1.01-.29-1.87-.43-2.81-.22-2.16-.14-4.32-.14-6.48,0-1.51.07-4.03,2.16-4.03.72,0,1.87.43,2.3,1.08.29.43.22,1.44.36,2.02.07.65.43,1.22.5,1.87.29,1.37.22,2.81.43,4.25.07.72.43,1.37.5,2.02.22,1.01.14,2.02.22,3.02.22,2.23.43,4.54.58,6.84.07.14.14.36.14.58,0,.14-.14.22-.14.5,0,1.15.43,2.3.43,3.53,0,1.37-1.66,3.6-3.1,3.6Z"/>
  <path d="M153.85,64.75c-.79,1.01-1.15,2.3-2.66,2.3-1.3,0-3.6-.58-4.18-1.87-.22-.58-.22-1.15-.22-1.66,0-1.73.22-3.38.22-5.11,0-1.22-.36-2.38-.36-3.24,0-.5.14-.86.14-1.3,0-1.01.07-2.02-.14-3.02-.29-1.3-1.51-2.45-1.51-3.82,0-.43.07-.86.07-1.3,0-.94-.43-.43-.43-1.87,0-.58-.65-2.23-.94-2.81-.29-.79-.5-1.73-1.3-2.23h-.36c-3.24-.14-4.46,2.09-6.48,4.25-.72.79-1.22,1.58-1.87,2.45-.79,1.01-1.08.86-1.8,2.38-.36.72-.29,1.66-.58,2.45-.22.43-.58.79-.79,1.3-.22.43-.36.94-.5,1.44-.43,1.44-.29,3.02-.36,4.46-.07.86-.43,1.73-.43,2.59,0,1.58.86,3.02.86,4.68,0,1.87-1.37,3.82-3.46,3.82-1.01,0-2.16-.65-2.59-1.66-.22-.65-.14-1.3-.14-2.02,0-1.22-.58-2.23-.58-2.38,0-.5.22-1.01.22-1.51,0-.72-.65-1.3-.79-2.02-.07-.5.07-1.15.07-1.66,0-.86-.43-1.66-.58-2.45-.65-3.1-1.01-8.06-1.01-11.31,0-1.44,0-4.18,1.94-4.18,1.22,0,2.16,1.08,2.95,1.94.5,1.8.36,4.39,1.3,5.9,2.38,0,2.74-2.52,3.67-4.03.43-.65,1.08-1.08,1.51-1.66.43-.58.65-1.3,1.08-1.87.07-.07,3.17-2.95,3.17-2.95.58-.43,1.3-.36,1.87-.79.65-.43,1.3-1.3,2.16-1.3.22,0,.43.22.72.22.65,0,1.37-.22,2.02-.22,1.58,0,2.59,1.58,3.82,2.23.14.14.36.07.5.22.07.07.29.72.43.94.43.72,1.08,1.37,1.44,2.23.36.86.43,1.87.79,2.74,1.3,4.03,2.59,7.34,2.59,11.67,0,.86-.22,1.66-.22,2.45,0,2.23.79,4.32.79,6.55,0,.36,0,.72-.07,1.01Z"/>
  <path d="M216.92,73.31c-.43,0-.86-.14-1.22-.36l-.22-.36h-.36c-.14-.22-.07-.36-.14-.58-.36-.65-.79-.65-.79-1.51,0-.5.07-.94.07-1.44,0-1.15-.58-2.45-1.01-3.53-.07-.29-.29-.43-.36-.72-.58-2.66-1.15-7.13-4.75-7.13-.22,0-.5,0-.79.07-.5-.36-1.01-.79-1.66-.79-1.08,0-2.09.79-3.17.94-.86.14-1.73,0-2.52,0-1.37,0-2.59.5-3.96.58-.94.07-1.8,0-2.74,0-1.22,0-2.23.07-2.81,1.3-.36.72-.79,1.73-.79,2.59-.29.22-1.51,2.38-1.66,2.81-.14.36,0,.72-.14,1.08-.14.36-.43.65-.58.94-.43.94-1.01,1.94-1.3,2.95-.79,2.88.5,8.57-3.74,8.57-1.15,0-3.31-1.51-3.31-2.81,0-1.22,1.15-2.38,1.51-3.53.43-1.44.43-3.02.94-4.46.58-1.87,1.8-4.03,2.59-5.9.43-1.01.65-2.09,1.08-3.17.36-.94,1.01-1.8,1.3-2.74.29-.86.29-1.8.58-2.59.29-1.01.72-1.87,1.08-2.81.72-1.8,1.08-3.74,1.66-5.54.5-1.44,1.15-2.88,1.73-4.32.79-2.02,1.3-4.32,2.23-6.26.36-.86.43-1.87.72-2.81.36-1.15.94-2.3,1.3-3.53.72-2.45,1.66-4.97,1.87-7.56.07-1.58-.14-3.24.72-4.61.65-.36,1.22-1.01,2.02-1.01,1.51,0,2.59,1.66,3.17,2.81.14.36.22.79.36,1.15.79,1.66,1.66,3.17,2.23,4.97.72,2.38,1.44,4.75,2.23,7.06.29.79.43,1.66.72,2.45.58,1.44,1.15,2.95,1.66,4.39.29.65.58,1.37.58,2.09v.36c2.16,3.53,2.74,7.92,4.1,11.88.29.79.58,1.58.94,2.38.14.36.43.72.5,1.08.14.5.07,1.01.22,1.51.22.79.94,1.44,1.08,2.23.14.5,0,1.01,0,1.51,0,.72.36.86.58,1.44.14.43.07.86.22,1.3.07.36.36.65.5.94.43.86,1.94,4.18,1.94,5.04,0,1.44-.65,1.94-1.37,3.1-1.01.14-2.02.58-3.02.58ZM210,53.66c0-.43-.29-.43-.43-.72-.22-.43-.22-.86-.36-1.3-.58-1.58-1.01-3.24-1.51-4.82-.22-.86-.65-1.58-.94-2.45-.58-1.58-.94-3.17-1.44-4.82-.29-.72-.65-1.44-.94-2.16-.29-.86-.36-1.87-.72-2.59-.14-.29-.43-.36-.58-.58-.58-.79-.58-2.52-1.87-2.45,0-.14-.07-.14-.22-.14-.72,0-1.3,2.38-1.66,2.95-.43.79-.65,1.66-.94,2.59-.5,1.73-1.15,3.31-1.8,4.97-.43,1.15-.72,2.3-1.15,3.38-.22.5-.58.94-.72,1.44-.22.72-.14,1.44-.36,2.09-.65,2.02-1.73,3.46-1.87,5.76.5.29,1.08.43,1.66.43.94,0,1.87-.22,2.81-.29,1.73-.07,3.46.07,5.18-.14.65-.14,1.22-.43,1.87-.43.86,0,1.66.43,2.59.43h2.16c.72,0,.58-.58,1.15-.79.07-.07.07-.22.07-.36Z"/>
  <path d="M241.25,40.84c-1.58,0-.79-3.17-4.75-3.17-2.66,0-3.17,1.22-3.17,3.6,0,2.16.72,3.1,1.51,4.9.29.65.43,1.37.72,2.09.5,1.01,1.15,1.8,1.51,2.95.22.86.43,1.73.72,2.59.43,1.15,1.01,2.16,1.51,3.31.14.43.14.86.36,1.3.14.36.43.58.58.94.14.65.14,1.37.14,2.02,0,2.3-.22,3.82-1.44,5.76-.36.43-.58,1.08-.94,1.51-.43.43-1.01.58-1.51.94-.79.43-1.51,1.01-2.23,1.66-.29-.14-.58-.14-.86-.14-.79,0-1.44.36-2.09.65-1.01.07-2.09.07-3.1.07-.86,0-1.87-.5-2.52-.94l-.22-.36h-.36c-.5-.5-.72-1.3-1.15-1.87-.29-.43-1.15-1.01-1.3-1.51-.07-.36-.14-.72-.14-1.08,0-.86.5-1.8,1.44-1.8.65,0,1.15.36,1.51.86.22.22.22.65.36.94.58,1.01,2.59,3.17,3.82,3.17.72,0,1.87-.58,2.52-.94,1.73-1.15,1.51-3.53,1.66-5.4,0-.43.22-.94.22-1.37l-.07-.14c0-.36-1.44-4.18-1.66-4.39-.07-.14-.22-.14-.36-.22-.72-1.58-.43-3.38-1.08-4.61-.65-1.08-1.08-2.23-1.66-3.38-1.01-1.8-2.02-3.17-2.02-5.4,0-2.52,1.58-5.4,3.67-6.84.14-.07.36-.22.5-.36.65-.43,2.59-1.51,3.24-1.66.72-.14,1.51-.22,2.23-.22,2.3,0,5.76,2.45,5.76,4.9,0,.86-.36,1.66-1.37,1.66Z"/>
  <path d="M265.3,39.26c-.65,0-1.3-.36-1.94-.36-2.38,0-2.88.43-4.18,2.23.14,1.3.22,2.59.36,3.89.14,1.15.43,2.3.58,3.53.14,1.94-.07,3.96.14,5.9.07.58.43,1.08.43,1.73,0,.58-.14,1.22-.14,1.8s.14,1.15.5,1.66c-.22.5-.29,1.01-.29,1.58,0,.94.22,1.8.43,2.66.14.58.36,3.74.36,4.46,0,1.51-1.94,3.74-3.46,3.74-1.08,0-2.02-.94-2.66-1.73-.22-.22-.79-1.01-.86-1.3-.36-.79-.22-6.41-.22-7.71,0-1.22-.07-2.38-.22-3.6-.07-1.01-.36-1.66-.36-2.81,0-.94.07-1.87.07-2.88,0-2.09-.58-4.1-.58-6.12,0-.5.14-.86.14-1.3,0-.72-.29-1.37-.36-2.09-.07-.72.07-1.51-.22-2.23-.43-1.37-1.22-1.66-2.59-1.8-.43-.07-.86-.22-1.3-.22-.65,0-1.3.36-2.09.36-.86,0-1.66-.22-2.52-.22-.58,0-1.08-.07-1.3-.72.22-3.17,7.7-.5,9.43-2.38.07-.22.07-.43.07-.65,0-1.15-.43-2.3-.43-3.46,0-.58.22-1.15.22-1.73s-.29-1.01-.36-1.58c-.22-1.22-.07-2.52-.22-3.74-.14-1.01-.58-2.09-.58-3.1,0-1.44.58-3.02,2.23-3.02.5,0,1.15.07,1.3.58.22.07.07,0,.29,0h.07c.5.22,1.37,2.45,1.51,2.95.79,2.45,1.15,4.9,1.51,7.42.07.65.29,1.22.36,1.87,0,.58-.07,1.15-.07,1.73,0,.94,1.22,2.95,2.3,2.95.65,0,1.3-.5,2.02-.58.5-.07,1.01,0,1.51,0,.58,0,1.15-.22,1.8-.22,1.08,0,2.45,1.37,2.45,2.52,0,1.22-2.09,1.94-3.17,1.94Z"/>
  <path d="M288.48,41.34c-.65,0-1.3-.36-2.02-.36-1.87,0-3.74,3.02-4.68,4.46-.79,1.22-1.87,2.38-1.87,3.96,0,.65.22,1.22.22,1.8,0,1.01-.58,1.87-.58,3.1,0,1.58.58,2.81.79,4.25.14,1.15.07,2.23.36,3.38.29,1.3.43,2.74.58,4.03-.43.72-2.38,2.02-3.1,2.02-.58,0-1.66-.58-2.09-.86-1.01-2.52-1.08-5.18-1.73-7.78-.07-.36-.29-.65-.36-.94,0-.29.07-.58.07-.86,0-.58-.36-.58-.43-1.01-.07-.29,0-.58,0-.86,0-.65-.43-1.44-.58-2.09-.07-.65,0-1.37-.14-2.02-.14-.79-.58-1.51-.79-2.23-.22-1.15-.07-2.23-.36-3.38-.07-.5-.22-1.01-.36-1.44s-.43-.72-.58-1.15c-.14-.58-.5-3.96-.5-4.68,0-.43.07-.94.14-1.44.58-.43,1.22-.86,2.02-.86.86,0,1.66.58,2.23,1.22,1.58,1.8,1.44,4.82,2.81,5.76,1.44-.07,1.94-1.73,2.81-2.59.36-.36.86-.72,1.3-1.08,2.02-1.87,3.24-3.74,6.41-3.74,1.37,0,3.02,1.37,3.02,2.81s-1.22,2.59-2.59,2.59Z"/>
  <path d="M311.16,59.99c-.43.43-.79,1.01-1.3,1.3-.65.43-1.51.65-2.23.94-.58.29-1.44.79-2.02.94s-1.22,0-1.8,0c-.72,0-1.44.14-2.16.14s-1.37-.22-2.02-.72c-1.94-.14-3.89-.86-5.33-2.23-.29-.22-.36-.5-.58-.72-.22-.14-.5-.22-.72-.36-2.23-1.66-2.66-3.38-2.66-6.05,0-2.52,1.3-4.75,2.45-6.91.07-.22.07-.43.22-.58.22-.29.65-.43.94-.72.5-.58.79-1.37,1.44-1.87.22-.22.5-.22.72-.36.43-.29.72-.94,1.15-1.15,1.37-.72,3.74-.86,5.26-.86,3.02,0,7.2,1.01,8.78,3.89.36.5.5,1.01.94,1.44.58.5,1.3.86,1.73,1.51.07.14.07.36.14.5.65,1.37.86,2.74.86,4.25,0,3.38-1.44,5.4-3.82,7.63ZM309.15,48.9c-.22-.22-.43-.36-.58-.58-.65-.72-1.08-2.09-2.02-2.38-.5-.22-4.61-1.15-4.97-1.15-.43,0-1.58.86-1.94,1.15-.29.22-.58.36-.94.5-2.02,1.15-2.45,2.16-2.45,4.54,0,1.73.65,2.95,1.73,4.18.65.72,2.38,2.66,3.17,2.95,1.22.5,3.1.29,4.46.43,1.01-.65,2.45-1.73,2.95-2.81l.36-.22c.22-.29.22-.72.36-1.08.5-1.15.86-1.08.86-2.74,0-1.01-.43-2.02-1.01-2.81Z"/>
  <path d="M352.42,64.75c-.79,1.01-1.15,2.3-2.66,2.3-1.3,0-3.6-.58-4.18-1.87-.22-.58-.22-1.15-.22-1.66,0-1.73.22-3.38.22-5.11,0-1.22-.36-2.38-.36-3.24,0-.5.14-.86.14-1.3,0-1.01.07-2.02-.14-3.02-.29-1.3-1.51-2.45-1.51-3.82,0-.43.07-.86.07-1.3,0-.94-.43-.43-.43-1.87,0-.58-.65-2.23-.94-2.81-.29-.79-.5-1.73-1.3-2.23h-.36c-3.24-.14-4.46,2.09-6.48,4.25-.72.79-1.22,1.58-1.87,2.45-.79,1.01-1.08.86-1.8,2.38-.36.72-.29,1.66-.58,2.45-.22.43-.58.79-.79,1.3-.22.43-.36.94-.5,1.44-.43,1.44-.29,3.02-.36,4.46-.07.86-.43,1.73-.43,2.59,0,1.58.86,3.02.86,4.68,0,1.87-1.37,3.82-3.46,3.82-1.01,0-2.16-.65-2.59-1.66-.22-.65-.14-1.3-.14-2.02,0-1.22-.58-2.23-.58-2.38,0-.5.22-1.01.22-1.51,0-.72-.65-1.3-.79-2.02-.07-.5.07-1.15.07-1.66,0-.86-.43-1.66-.58-2.45-.65-3.1-1.01-8.06-1.01-11.31,0-1.44,0-4.18,1.94-4.18,1.22,0,2.16,1.08,2.95,1.94.5,1.8.36,4.39,1.3,5.9,2.38,0,2.74-2.52,3.67-4.03.43-.65,1.08-1.08,1.51-1.66.43-.58.65-1.3,1.08-1.87.07-.07,3.17-2.95,3.17-2.95.58-.43,1.3-.36,1.87-.79.65-.43,1.3-1.3,2.16-1.3.22,0,.43.22.72.22.65,0,1.37-.22,2.02-.22,1.58,0,2.59,1.58,3.82,2.23.14.14.36.07.5.22.07.07.29.72.43.94.43.72,1.08,1.37,1.44,2.23.36.86.43,1.87.79,2.74,1.3,4.03,2.59,7.34,2.59,11.67,0,.86-.22,1.66-.22,2.45,0,2.23.79,4.32.79,6.55,0,.36,0,.72-.07,1.01Z"/>
  <path d="M379.34,45.52c-.07,1.3-.65,2.52-.65,3.74,0,.72.14,1.44.14,2.16,0,1.01-.22,1.94-.5,2.88-.22.5-.5.94-.65,1.44-.14.65-.07,1.3-.22,1.87-.07.5-.36.94-.43,1.44-.07.72.07,1.44.07,2.16,0,1.01-.5,1.73-.65,2.66-.14.86-.07,3.1-.29,3.74-.43,1.08-1.87,3.31-3.17,3.31-1.37,0-3.17-1.51-3.17-2.95,0-.94.5-1.73.5-2.59,0-.29-.07-.58-.14-.86.36-1.01.65-1.22.65-2.38,0-.36-.07-.86-.22-1.22-.36-.14-.72-.22-1.08-.22-1.22,0-2.38.58-3.6.58-.94,0-1.87-.14-2.74-.14-.58,0-1.15.07-1.73.07-.22,0-.43,0-.65-.07-.94-.22-4.75-3.74-5.04-4.54-.07-.36-.14-.79-.14-1.15,0-1.22.65-2.23,1.22-3.24.36-.65.72-1.58,1.22-2.09.22-.29.72-.36,1.01-.65.36-.22.5-.58.86-.79,1.51-1.08,3.53-1.58,5.33-1.58.5,0,1.08,0,1.58.07,1.08.22,1.87.86,2.88,1.3.36.14,1.44.22,1.66.43.14.07.22.22.22.36.36.14.72.07,1.08.22.72-.58.36-1.94.36-2.81,0-1.44.43-2.88.43-4.39,0-1.87-1.37-6.19-3.53-6.55h-.5c-1.8,0-2.74,1.66-4.9,1.66-1.51,1.3-2.38,2.45-4.18,3.38-.36.14-.79.58-1.22.58-.14,0-.29-.07-.43-.22-.22-.29-.36-.65-.36-1.01,0-2.02,2.23-2.81,2.81-4.18.43-.14.79-.36,1.08-.65l.22-.36c.58-.29,1.3-.5,1.87-.86.22-.14.36-.43.58-.65,1.15-.65,3.24-1.08,4.61-1.08.86,0,2.74.14,3.53.5.29.07.43.29.65.43,1.37.58,2.16,1.08,3.1,2.23,1.87,2.23,2.59,5.62,2.59,8.42,0,.5,0,1.08-.07,1.58ZM370.2,53.23c-1.08-1.08-4.75-1.73-6.26-1.73-1.37,0-3.17.36-3.17,2.09,0,1.15.79,2.74,1.73,3.38.94.65,2.38.58,3.53.65.65.07,1.3.22,1.94.22,1.15,0,2.59-.22,3.24-1.22l.07-.43c0-1.01-.36-2.23-1.08-2.95Z"/>
  <path d="M412.39,66.11c-.43.07-.79.07-1.22.07-2.16,0-3.02-.79-3.53-2.81-.14-.5,0-1.08-.14-1.58-.07-.36-.43-.65-.5-1.01-.07-.72,0-1.58,0-2.38,0-1.08-.14-3.02-.86-3.89-1.94.29-1.58,2.45-2.66,3.6-.65.65-1.66.72-2.3,1.37-.58.58-.72,1.58-1.22,2.3-.79,1.15-2.09,2.16-3.1,3.17-.29.36-.58.86-.94,1.08-.36.29-.94.29-1.3.5-.5.22-.86.72-1.37.72-.65,0-1.22-.22-1.8-.29-.72,0-1.44.07-2.16.07-.65,0-1.58-.22-2.09-.72-.14-.14-.07-.43-.22-.58-.22-.29-.72-.43-.86-.72-.22-.5-.14-1.51-.36-2.16-.14-.5-.58-1.01-.72-1.51-.14-.86-.22-1.73-.22-2.52,0-2.16.86-3.6.86-5.47,0-.79-.14-1.58-.14-2.38s.43-1.3.5-2.02c.14-.5,0-1.08.07-1.58.22-1.58.5-3.1.65-4.61.14-1.44.79-4.54,2.66-4.54,2.67,0,2.81,2.45,2.81,4.46,0,1.37-.5,2.16-.5,3.02,0,.65.22,1.3.22,1.94s-.22,1.22-.29,1.87c-.14,1.58-.14,3.17-.43,4.75,0,.22-.07.43-.07.65,0,.72.07,1.44.07,2.16,0,.86-.14,1.8-.14,2.74,0,1.08.58,2.88,1.94,2.88,1.01,0,2.3-1.58,3.1-2.23,1.01-.86,1.94-1.58,2.74-2.59.36-.5.58-1.3,1.08-1.66.14-.14.36-.14.58-.29,1.08-.94,2.95-3.46,3.6-4.82.36-.86,1.22-1.44,1.58-2.3.07-.29,0-.86.07-1.22.29-1.08,1.01-2.02,1.01-3.17,0-.65-.07-1.3-.07-1.94,0-1.01,1.37-1.87,2.3-1.87,2.66,0,4.1,4.61,4.1,6.77,0,.94-.29,2.16-.29,3.38,0,2.45.72,4.82.72,7.2,0,.43-.07.94-.07,1.37,0,1.15.65,2.23.65,3.38s-.79,2.74-1.73,3.38Z"/>
  <path d="M435.5,39.26c-.65,0-1.3-.36-1.94-.36-2.38,0-2.88.43-4.18,2.23.14,1.3.22,2.59.36,3.89.14,1.15.43,2.3.58,3.53.14,1.94-.07,3.96.14,5.9.07.58.43,1.08.43,1.73,0,.58-.14,1.22-.14,1.8s.14,1.15.5,1.66c-.22.5-.29,1.01-.29,1.58,0,.94.22,1.8.43,2.66.14.58.36,3.74.36,4.46,0,1.51-1.94,3.74-3.46,3.74-1.08,0-2.02-.94-2.66-1.73-.22-.22-.79-1.01-.86-1.3-.36-.79-.22-6.41-.22-7.71,0-1.22-.07-2.38-.22-3.6-.07-1.01-.36-1.66-.36-2.81,0-.94.07-1.87.07-2.88,0-2.09-.58-4.1-.58-6.12,0-.5.14-.86.14-1.3,0-.72-.29-1.37-.36-2.09-.07-.72.07-1.51-.22-2.23-.43-1.37-1.22-1.66-2.59-1.8-.43-.07-.86-.22-1.3-.22-.65,0-1.3.36-2.09.36-.86,0-1.66-.22-2.52-.22-.58,0-1.08-.07-1.3-.72.22-3.17,7.71-.5,9.43-2.38.07-.22.07-.43.07-.65,0-1.15-.43-2.3-.43-3.46,0-.58.22-1.15.22-1.73s-.29-1.01-.36-1.58c-.22-1.22-.07-2.52-.22-3.74-.14-1.01-.58-2.09-.58-3.1,0-1.44.58-3.02,2.23-3.02.5,0,1.15.07,1.3.58.22.07.07,0,.29,0h.07c.5.22,1.37,2.45,1.51,2.95.79,2.45,1.15,4.9,1.51,7.42.07.65.29,1.22.36,1.87,0,.58-.07,1.15-.07,1.73,0,.94,1.22,2.95,2.3,2.95.65,0,1.3-.5,2.02-.58.5-.07,1.01,0,1.51,0,.58,0,1.15-.22,1.8-.22,1.08,0,2.45,1.37,2.45,2.52,0,1.22-2.09,1.94-3.17,1.94Z"/>
  <path d="M463.22,45.52c-.07,1.3-.65,2.52-.65,3.74,0,.72.14,1.44.14,2.16,0,1.01-.22,1.94-.5,2.88-.22.5-.5.94-.65,1.44-.14.65-.07,1.3-.22,1.87-.07.5-.36.94-.43,1.44-.07.72.07,1.44.07,2.16,0,1.01-.5,1.73-.65,2.66-.14.86-.07,3.1-.29,3.74-.43,1.08-1.87,3.31-3.17,3.31-1.37,0-3.17-1.51-3.17-2.95,0-.94.5-1.73.5-2.59,0-.29-.07-.58-.14-.86.36-1.01.65-1.22.65-2.38,0-.36-.07-.86-.22-1.22-.36-.14-.72-.22-1.08-.22-1.22,0-2.38.58-3.6.58-.94,0-1.87-.14-2.74-.14-.58,0-1.15.07-1.73.07-.22,0-.43,0-.65-.07-.94-.22-4.75-3.74-5.04-4.54-.07-.36-.14-.79-.14-1.15,0-1.22.65-2.23,1.22-3.24.36-.65.72-1.58,1.22-2.09.22-.29.72-.36,1.01-.65.36-.22.5-.58.86-.79,1.51-1.08,3.53-1.58,5.33-1.58.5,0,1.08,0,1.58.07,1.08.22,1.87.86,2.88,1.3.36.14,1.44.22,1.66.43.14.07.22.22.22.36.36.14.72.07,1.08.22.72-.58.36-1.94.36-2.81,0-1.44.43-2.88.43-4.39,0-1.87-1.37-6.19-3.53-6.55h-.5c-1.8,0-2.74,1.66-4.9,1.66-1.51,1.3-2.38,2.45-4.18,3.38-.36.14-.79.58-1.22.58-.14,0-.29-.07-.43-.22-.22-.29-.36-.65-.36-1.01,0-2.02,2.23-2.81,2.81-4.18.43-.14.79-.36,1.08-.65l.22-.36c.58-.29,1.3-.5,1.87-.86.22-.14.36-.43.58-.65,1.15-.65,3.24-1.08,4.61-1.08.86,0,2.74.14,3.53.5.29.07.43.29.65.43,1.37.58,2.16,1.08,3.1,2.23,1.87,2.23,2.59,5.62,2.59,8.42,0,.5,0,1.08-.07,1.58ZM454.08,53.23c-1.08-1.08-4.75-1.73-6.26-1.73-1.37,0-3.17.36-3.17,2.09,0,1.15.79,2.74,1.73,3.38.94.65,2.38.58,3.53.65.65.07,1.3.22,1.94.22,1.15,0,2.59-.22,3.24-1.22l.07-.43c0-1.01-.36-2.23-1.08-2.95Z"/>
</svg>